<svg width="512" height="512" viewBox="0 0 512 512" xmlns="http://www.w3.org/2000/svg">
  <defs>
    <linearGradient id="bgCoolFire" x1="0%" y1="0%" x2="100%" y2="100%">
      <stop offset="0%" stop-color="#0ea5e9"/>
      <stop offset="40%" stop-color="#22c55e"/>
      <stop offset="100%" stop-color="#f97316"/>
    </linearGradient>
    <filter id="shadowCoolFire" x="-20%" y="-20%" width="140%" height="160%">
      <feDropShadow dx="0" dy="26" stdDeviation="18" flood-color="#111827" flood-opacity="0.55"/>
    </filter>
  </defs>

  <rect x="40" y="40" width="432" height="432" rx="140"
        fill="url(#bgCoolFire)" filter="url(#shadowCoolFire)"/>

  <!-- Face -->
  <circle cx="230" cy="256" r="110" fill="#facc15" stroke="#f97316" stroke-width="10"/>

  <!-- Sunglasses -->
  <rect x="176" y="220" width="52" height="24" rx="10" fill="#0f172a"/>
  <rect x="232" y="220" width="52" height="24" rx="10" fill="#0f172a"/>
  <rect x="228" y="228" width="8" height="6" fill="#0f172a"/>

  <!-- Smile -->
  <path d="M184 276 Q 230 316 276 276" stroke="#7c2d12" stroke-width="10" stroke-linecap="round" fill="none"/>

  <!-- Fire on side -->
  <g transform="translate(320,280)">
    <path d="M0 80 C -10 46 4 30 14 12 C 26 30 32 46 32 60 C 32 44 46 30 54 8 C 66 30 76 56 70 80 C 64 106 44 120 32 128 C 18 120 2 102 0 80Z"
          fill="#fb923c" stroke="#c2410c" stroke-width="6"/>
    <path d="M26 70 C 34 52 40 44 44 34 C 50 44 54 52 54 64 C 54 76 46 88 36 96 C 26 88 20 80 20 70 Z"
          fill="#facc15"/>
  </g>
</svg>


