<svg width="512" height="512" viewBox="0 0 512 512" xmlns="http://www.w3.org/2000/svg">
  <defs>
    <linearGradient id="bgLoveFire" x1="0%" y1="0%" x2="100%" y2="100%">
      <stop offset="0%" stop-color="#f97316"/>
      <stop offset="45%" stop-color="#ec4899"/>
      <stop offset="100%" stop-color="#4f46e5"/>
    </linearGradient>
    <filter id="shadowLoveFire" x="-20%" y="-20%" width="140%" height="160%">
      <feDropShadow dx="0" dy="26" stdDeviation="18" flood-color="#111827" flood-opacity="0.55"/>
    </filter>
  </defs>

  <rect x="40" y="40" width="432" height="432" rx="140"
        fill="url(#bgLoveFire)" filter="url(#shadowLoveFire)"/>

  <!-- Heart -->
  <path d="M256 180 C 236 150 192 144 170 170 C 140 206 158 264 256 332 C 354 264 372 206 342 170 C 320 144 276 150 256 180Z"
        fill="#f97373" stroke="#fca5a5" stroke-width="10"/>

  <!-- Fire -->
  <g transform="translate(310,290)">
    <path d="M0 80 C -10 46 4 30 14 12 C 26 30 32 46 32 60 C 32 44 46 30 54 8 C 66 30 76 56 70 80 C 64 106 44 120 32 128 C 18 120 2 102 0 80Z"
          fill="#f97316" stroke="#c2410c" stroke-width="6"/>
    <path d="M26 70 C 34 52 40 44 44 34 C 50 44 54 52 54 64 C 54 76 46 88 36 96 C 26 88 20 80 20 70 Z"
          fill="#facc15"/>
  </g>
</svg>


