<svg width="512" height="512" viewBox="0 0 512 512" xmlns="http://www.w3.org/2000/svg">
  <defs>
    <linearGradient id="bgRainbowPoop" x1="0%" y1="0%" x2="100%" y2="100%">
      <stop offset="0%" stop-color="#22c55e"/>
      <stop offset="35%" stop-color="#22d3ee"/>
      <stop offset="70%" stop-color="#6366f1"/>
      <stop offset="100%" stop-color="#ec4899"/>
    </linearGradient>
    <filter id="shadowRainbowPoop" x="-20%" y="-20%" width="140%" height="160%">
      <feDropShadow dx="0" dy="26" stdDeviation="18" flood-color="#111827" flood-opacity="0.55"/>
    </filter>
  </defs>

  <rect x="40" y="40" width="432" height="432" rx="140"
        fill="url(#bgRainbowPoop)" filter="url(#shadowRainbowPoop)"/>

  <!-- Rainbow -->
  <g transform="translate(120,260)">
    <path d="M0 80 A 96 96 0 0 1 192 80" stroke="#f97316" stroke-width="24" fill="none" stroke-linecap="round"/>
    <path d="M16 80 A 80 80 0 0 1 176 80" stroke="#facc15" stroke-width="22" fill="none" stroke-linecap="round"/>
    <path d="M32 80 A 64 64 0 0 1 160 80" stroke="#22c55e" stroke-width="20" fill="none" stroke-linecap="round"/>
    <path d="M44 80 A 52 52 0 0 1 148 80" stroke="#0ea5e9" stroke-width="18" fill="none" stroke-linecap="round"/>
    <path d="M56 80 A 40 40 0 0 1 136 80" stroke="#6366f1" stroke-width="16" fill="none" stroke-linecap="round"/>
  </g>

  <!-- Poop -->
  <g transform="translate(210,250)">
    <path d="M46 0 C 34 8 24 22 26 34 C 20 36 10 44 6 56 C -4 86 14 120 46 132 C 78 120 96 86 86 56 C 80 44 70 36 64 34 C 66 22 58 8 46 0Z"
          fill="#92400e" stroke="#451a03" stroke-width="6"/>
    <!-- Eyes -->
    <circle cx="36" cy="64" r="6" fill="#fef9c3"/>
    <circle cx="34" cy="62" r="3" fill="#111827"/>
    <circle cx="58" cy="64" r="6" fill="#fef9c3"/>
    <circle cx="60" cy="62" r="3" fill="#111827"/>
    <!-- Smile -->
    <path d="M36 78 Q 46 86 56 78" stroke="#0f172a" stroke-width="4" stroke-linecap="round" fill="none"/>
  </g>
</svg>


